<?xml version="1.0" standalone="no"?>
<!DOCTYPE svg PUBLIC "-//W3C//DTD SVG 20010904//EN"
 "http://www.w3.org/TR/2001/REC-SVG-20010904/DTD/svg10.dtd">
<svg version="1.0" xmlns="http://www.w3.org/2000/svg"
 width="1366.000000pt" height="851.000000pt" viewBox="0 0 1366.000000 851.000000"
 preserveAspectRatio="xMidYMid meet">

<g transform="translate(0.000000,851.000000) scale(0.100000,-0.100000)"
fill="#000000" stroke="none">
<path d="M0 4255 l0 -4255 6830 0 6830 0 0 4255 0 4255 -6830 0 -6830 0 0
-4255z m7750 3765 l0 -250 423 -2 422 -3 3 -22 c2 -13 8 -23 13 -23 14 0 11
-77 -3 -84 -10 -5 -10 -7 0 -12 6 -3 12 -21 12 -39 0 -18 -6 -36 -12 -39 -10
-5 -10 -7 0 -12 6 -3 12 -22 12 -41 0 -27 -3 -34 -15 -29 -13 5 -15 -23 -14
-212 1 -119 3 -209 6 -199 8 32 23 17 23 -23 0 -45 -6 -51 -20 -17 -6 14 -8
-32 -8 -133 1 -85 3 -140 5 -122 5 40 23 42 23 2 l0 -30 259 0 c239 0 260 1
264 18 3 9 5 -139 6 -330 l1 -348 280 0 280 0 0 -85 c0 -84 0 -85 25 -85 l25
0 0 -115 0 -115 -27 -1 c-16 0 -85 0 -155 1 l-128 1 0 -165 0 -166 118 0 c78
0 122 4 130 12 9 9 12 -10 12 -85 0 -97 0 -97 25 -97 l25 0 0 -115 0 -115 -25
0 -25 0 0 -225 0 -225 25 0 25 0 0 -115 0 -115 -25 0 -25 0 0 -225 0 -225 25
0 25 0 0 -115 0 -115 -25 0 -25 0 0 -225 0 -225 25 0 25 0 0 -115 0 -115 -25
0 -25 0 0 -225 0 -225 25 0 25 0 0 -115 0 -115 -25 0 -25 0 0 -225 0 -225 25
0 26 0 -3 -117 c-3 -116 -3 -118 -25 -115 -23 3 -23 3 -23 -137 l0 -141 25 0
25 0 0 -175 0 -175 -25 0 -25 0 0 -335 0 -335 183 -2 182 -3 3 -27 3 -28 -185
0 c-186 0 -186 0 -187 -22 -1 -17 -2 -19 -6 -5 -8 29 -31 19 -36 -15 -4 -32
-4 -32 -5 5 l-2 37 -516 0 c-507 0 -516 0 -521 -20 -7 -26 -23 -26 -23 0 0 19
-7 20 -230 20 -223 0 -230 -1 -230 -20 0 -26 -16 -26 -23 0 -5 20 -14 20 -652
20 -638 0 -647 0 -652 -20 -7 -26 -23 -26 -23 0 0 19 -7 20 -230 20 -223 0
-230 -1 -230 -20 0 -11 -4 -20 -9 -20 -5 0 -11 9 -14 20 -5 20 -14 20 -1011
20 l-1006 0 -2 -37 c-1 -37 -1 -37 -5 -5 -5 34 -28 44 -36 15 -3 -10 -5 1556
-6 3480 l-1 3497 -27 1 -28 2 28 4 27 4 0 165 0 164 -27 1 -28 2 28 4 27 4 0
170 0 169 380 0 380 0 0 219 0 220 -32 4 c-18 2 600 5 1375 5 l1407 2 0 -250z
m870 -615 c0 -19 -4 -35 -10 -35 -5 0 -10 16 -10 35 0 19 5 35 10 35 6 0 10
-16 10 -35z m0 -95 c0 -22 -4 -40 -10 -40 -11 0 -14 63 -3 73 11 12 13 8 13
-33z m0 -95 c0 -19 -4 -35 -10 -35 -5 0 -10 16 -10 35 0 19 5 35 10 35 6 0 10
-16 10 -35z m0 -90 c0 -19 -4 -35 -10 -35 -5 0 -10 16 -10 35 0 19 5 35 10 35
6 0 10 -16 10 -35z m0 -185 c0 -22 -4 -40 -10 -40 -11 0 -14 63 -3 73 11 12
13 8 13 -33z m0 -95 c0 -19 -4 -35 -10 -35 -5 0 -10 16 -10 35 0 19 5 35 10
35 6 0 10 -16 10 -35z"/>
<path d="M5010 8065 l0 -195 645 0 c567 0 645 2 645 15 0 8 7 15 15 15 8 0 15
-7 15 -15 0 -13 32 -15 230 -15 198 0 230 2 230 15 0 8 5 15 10 15 6 0 10 -7
10 -15 0 -13 58 -15 460 -15 l460 0 0 195 0 195 -460 0 -460 0 0 -30 c0 -16
-4 -30 -10 -30 -5 0 -10 14 -10 30 l0 30 -230 0 -230 0 0 -30 c0 -16 -4 -30
-9 -30 -5 0 -11 14 -14 30 l-6 30 -646 0 -645 0 0 -195z m1320 80 c0 -19 -4
-35 -10 -35 -5 0 -10 6 -10 13 0 6 -3 22 -6 35 -5 16 -2 22 10 22 12 0 16 -9
16 -35z m482 0 c3 -24 0 -35 -9 -35 -8 0 -13 13 -13 35 0 19 4 35 9 35 5 0 11
-16 13 -35z m-482 -101 c0 -19 -4 -34 -9 -34 -10 0 -23 58 -15 71 11 18 24 -2
24 -37z m480 16 c0 -16 0 -33 1 -37 0 -4 -4 -9 -10 -11 -7 -2 -11 12 -11 37 0
23 5 41 10 41 6 0 10 -13 10 -30z m-480 -105 c0 -19 -4 -35 -10 -35 -5 0 -10
6 -10 13 0 6 -3 22 -6 35 -5 16 -2 22 10 22 12 0 16 -9 16 -35z m480 0 c0 -19
-4 -35 -10 -35 -5 0 -10 16 -10 35 0 19 5 35 10 35 6 0 10 -16 10 -35z"/>
<path d="M5010 7840 c0 -19 7 -20 265 -20 l265 0 0 -25 0 -25 380 0 c373 0
380 0 380 20 0 11 7 20 15 20 8 0 15 -9 15 -20 0 -19 7 -20 230 -20 223 0 230
1 230 20 0 11 5 20 10 20 6 0 10 -9 10 -20 0 -20 7 -20 459 -20 442 0 459 1
464 19 2 10 2 31 0 45 l-5 26 -454 0 c-395 0 -455 -2 -460 -15 -4 -8 -10 -15
-15 -15 -5 0 -9 7 -9 15 0 13 -32 15 -230 15 -198 0 -230 -2 -230 -15 0 -8 -4
-15 -9 -15 -5 0 -11 7 -15 15 -5 13 -86 15 -651 15 -638 0 -645 0 -645 -20z"/>
<path d="M4260 7645 c0 -103 4 -165 10 -165 6 0 10 62 10 165 0 103 -4 165
-10 165 -6 0 -10 -62 -10 -165z"/>
<path d="M4290 7790 c0 -20 7 -20 615 -20 608 0 615 0 615 20 0 20 -7 20 -615
20 -608 0 -615 0 -615 -20z"/>
<path d="M4290 7620 l0 -140 200 0 200 0 0 140 0 140 -200 0 -200 0 0 -140z"/>
<path d="M4700 7620 l0 -140 240 0 240 0 0 140 0 140 -240 0 -240 0 0 -140z"/>
<path d="M5190 7620 l0 -140 165 0 165 0 0 140 0 140 -165 0 -165 0 0 -140z"/>
<path d="M5540 7620 l0 -140 60 0 60 0 0 140 0 140 -60 0 -60 0 0 -140z"/>
<path d="M5680 7620 l0 -140 235 0 235 0 0 140 0 140 -235 0 -235 0 0 -140z"/>
<path d="M6160 7620 l0 -140 75 0 75 0 -6 25 c-5 19 -2 25 10 25 10 0 16 -9
16 -25 l0 -25 155 0 155 0 0 140 0 140 -154 0 c-114 0 -156 -3 -160 -12 -5
-10 -7 -10 -12 0 -4 8 -30 12 -80 12 l-74 0 0 -140z m170 54 c0 -19 -4 -34 -9
-34 -10 0 -23 58 -15 71 11 18 24 -2 24 -37z m0 -89 c0 -19 -4 -35 -10 -35 -5
0 -10 6 -10 13 0 6 -3 22 -6 35 -5 16 -2 22 10 22 12 0 16 -9 16 -35z"/>
<path d="M6650 7620 l0 -140 70 0 c68 0 70 1 70 25 0 14 5 25 10 25 6 0 10
-11 10 -25 l0 -25 155 0 155 0 0 140 0 140 -156 0 c-101 0 -153 -3 -149 -10 3
-5 -1 -10 -9 -10 -9 0 -16 5 -16 10 0 6 -30 10 -70 10 l-70 0 0 -140z m160 60
c0 -22 -4 -40 -10 -40 -5 0 -10 18 -10 40 0 22 5 40 10 40 6 0 10 -18 10 -40z
m0 -95 c0 -19 -4 -35 -10 -35 -5 0 -10 16 -10 35 0 19 5 35 10 35 6 0 10 -16
10 -35z"/>
<path d="M7130 7620 l0 -140 240 0 240 0 0 140 0 140 -240 0 -240 0 0 -140z"/>
<path d="M7620 7620 l0 -140 55 0 55 0 0 140 0 140 -55 0 -55 0 0 -140z"/>
<path d="M7750 7620 l0 -140 175 0 175 0 0 140 0 140 -175 0 -175 0 0 -140z"/>
<path d="M8110 7735 c0 -15 5 -24 13 -22 7 1 13 -12 15 -35 3 -41 -14 -53 -21
-15 -3 16 -5 13 -6 -10 -1 -23 3 -33 14 -33 10 0 15 -11 15 -35 0 -39 -16 -48
-23 -12 -3 16 -5 13 -6 -10 -1 -23 3 -33 14 -33 9 0 15 -9 15 -25 l0 -25 220
0 220 0 0 140 0 140 -235 0 -235 0 0 -25z"/>
<path d="M4260 7257 l0 -217 1020 0 c900 0 1020 2 1020 15 0 8 5 15 10 15 6 0
13 -7 16 -15 5 -13 41 -15 235 -15 197 0 229 2 229 15 0 8 4 15 9 15 5 0 11
-7 15 -15 5 -13 86 -15 651 -15 567 0 645 2 645 15 0 8 5 15 10 15 6 0 13 -7
16 -15 5 -13 40 -15 225 -15 l219 0 0 210 0 210 -2038 0 c-1122 0 -2094 3
-2160 7 l-122 6 0 -216z m2068 145 c2 -18 -1 -32 -7 -32 -6 0 -11 6 -11 13 0
6 -3 23 -7 36 -4 18 -2 23 8 19 8 -2 15 -19 17 -36z m484 3 c3 -24 0 -35 -9
-35 -8 0 -13 13 -13 35 0 19 4 35 9 35 5 0 11 -16 13 -35z m1326 -3 c2 -24 -1
-32 -12 -32 -12 0 -16 10 -16 36 0 45 24 42 28 -4z m-1808 -98 c0 -19 -4 -34
-9 -34 -10 0 -23 58 -15 71 11 18 24 -2 24 -37z m480 6 c0 -22 -4 -40 -10 -40
-11 0 -14 63 -3 73 11 12 13 8 13 -33z m1330 -6 c0 -24 -4 -34 -12 -32 -15 5
-22 42 -14 64 10 25 26 5 26 -32z m-1810 -89 c0 -19 -4 -35 -10 -35 -5 0 -10
6 -10 13 0 6 -3 22 -6 35 -5 16 -2 22 10 22 12 0 16 -9 16 -35z m480 0 c0 -19
-4 -35 -10 -35 -5 0 -10 16 -10 35 0 19 5 35 10 35 6 0 10 -16 10 -35z m1330
-1 c0 -45 -24 -42 -28 4 -2 24 1 32 12 32 12 0 16 -10 16 -36z m-1810 -89 c0
-19 -4 -35 -10 -35 -5 0 -10 6 -10 13 0 6 -3 22 -6 35 -5 16 -2 22 10 22 12 0
16 -9 16 -35z m480 0 c0 -19 -4 -35 -10 -35 -5 0 -10 16 -10 35 0 19 5 35 10
35 6 0 10 -16 10 -35z m1330 0 c0 -24 -5 -35 -15 -35 -10 0 -15 11 -15 35 0
24 5 35 15 35 10 0 15 -11 15 -35z"/>
<path d="M4260 6880 c0 -93 4 -150 10 -150 6 0 10 57 10 150 0 93 -4 150 -10
150 -6 0 -10 -57 -10 -150z"/>
<path d="M5010 6880 c0 -127 2 -150 15 -150 13 0 15 23 15 150 0 127 -2 150
-15 150 -13 0 -15 -23 -15 -150z"/>
<path d="M5780 6880 l0 -150 260 0 260 0 0 30 c0 20 5 30 15 30 10 0 15 -10
15 -30 l0 -30 95 0 95 0 0 150 0 150 -95 0 c-88 0 -95 -1 -95 -20 0 -11 -5
-20 -11 -20 -6 0 -13 9 -16 20 -5 19 -14 20 -264 20 l-259 0 0 -150z m550 54
c0 -24 -4 -34 -12 -32 -15 5 -22 42 -14 64 10 25 26 5 26 -32z m0 -89 c0 -24
-5 -35 -15 -35 -10 0 -15 11 -15 35 0 24 5 35 15 35 10 0 15 -11 15 -35z"/>
<path d="M8560 6880 c0 -93 4 -150 10 -150 6 0 10 57 10 150 0 93 -4 150 -10
150 -6 0 -10 -57 -10 -150z"/>
<path d="M4317 7003 c-4 -3 -7 -66 -7 -140 l0 -133 160 0 160 0 0 140 0 140
-153 0 c-85 0 -157 -3 -160 -7z"/>
<path d="M4660 6870 l0 -140 160 0 161 0 -3 138 -3 137 -157 3 -158 3 0 -141z"/>
<path d="M5077 7003 c-4 -3 -7 -66 -7 -140 l0 -133 160 0 160 0 0 140 0 140
-153 0 c-85 0 -157 -3 -160 -7z"/>
<path d="M5420 6870 l0 -140 160 0 160 0 0 140 0 140 -160 0 -160 0 0 -140z"/>
<path d="M6560 6870 l0 -140 115 0 115 0 0 30 c0 17 5 30 10 30 6 0 10 -13 10
-30 l0 -30 105 0 105 0 0 140 0 140 -98 0 c-57 0 -103 -5 -109 -11 -8 -8 -13
-8 -17 0 -5 7 -50 11 -122 11 l-114 0 0 -140z m250 70 c0 -22 -4 -40 -10 -40
-11 0 -14 63 -3 73 11 12 13 8 13 -33z m0 -95 c0 -19 -4 -35 -10 -35 -5 0 -10
16 -10 35 0 19 5 35 10 35 6 0 10 -16 10 -35z"/>
<path d="M7047 7003 c-4 -3 -7 -66 -7 -140 l0 -133 235 0 235 0 0 140 0 140
-228 0 c-126 0 -232 -3 -235 -7z"/>
<path d="M7570 6870 l0 -140 230 0 230 0 0 140 0 140 -230 0 -230 0 0 -140z"/>
<path d="M8060 6870 l0 -140 30 0 c27 0 29 2 24 30 -5 23 -3 30 10 30 11 0 16
-9 16 -30 l0 -30 190 0 190 0 0 140 0 140 -188 0 c-122 0 -192 -4 -199 -11 -8
-8 -13 -8 -17 0 -4 6 -18 11 -32 11 l-24 0 0 -140z m80 64 c0 -19 -4 -34 -9
-34 -10 0 -23 58 -15 71 11 18 24 -2 24 -37z m0 -89 c0 -19 -4 -35 -10 -35 -5
0 -10 6 -10 13 0 6 -3 22 -6 35 -5 16 -2 22 10 22 12 0 16 -9 16 -35z"/>
<path d="M4254 6658 c3 -29 6 -74 6 -100 0 -27 5 -48 10 -48 6 0 10 40 10 100
0 86 -2 100 -16 100 -14 0 -16 -8 -10 -52z"/>
<path d="M4310 6605 l0 -95 160 0 160 0 0 95 0 95 -160 0 -160 0 0 -95z"/>
<path d="M4660 6605 l0 -95 160 0 160 0 0 95 0 95 -160 0 -160 0 0 -95z"/>
<path d="M5010 6605 c0 -78 3 -95 15 -95 12 0 15 17 15 95 0 78 -3 95 -15 95
-12 0 -15 -17 -15 -95z"/>
<path d="M5070 6605 l0 -95 160 0 160 0 0 95 0 95 -160 0 -160 0 0 -95z"/>
<path d="M5420 6605 l0 -95 160 0 160 0 0 95 0 95 -160 0 -160 0 0 -95z"/>
<path d="M5780 6605 l0 -95 370 0 370 0 0 95 0 95 -95 0 -95 0 0 -41 c0 -52
-24 -48 -28 4 l-3 37 -260 0 -259 0 0 -95z m550 -41 c0 -24 -5 -34 -15 -34
-10 0 -15 10 -15 33 0 19 3 37 6 40 13 13 24 -5 24 -39z"/>
<path d="M6560 6605 l0 -95 230 0 230 0 0 95 0 95 -106 0 -106 0 4 -37 c2 -22
-1 -37 -7 -36 -6 2 -11 18 -13 38 l-3 35 -115 0 -114 0 0 -95z m250 -40 c0
-19 -4 -35 -10 -35 -5 0 -10 16 -10 35 0 19 5 35 10 35 6 0 10 -16 10 -35z"/>
<path d="M7040 6605 l0 -95 235 0 235 0 0 95 0 95 -235 0 -235 0 0 -95z"/>
<path d="M7570 6605 l0 -95 230 0 230 0 0 95 0 95 -230 0 -230 0 0 -95z"/>
<path d="M8060 6605 l0 -95 230 0 230 0 0 95 0 95 -193 0 -193 0 4 -34 c2 -18
0 -36 -6 -40 -11 -6 -25 51 -16 65 3 5 -9 9 -25 9 l-31 0 0 -95z m80 -40 c0
-19 -4 -35 -10 -35 -5 0 -10 6 -10 13 0 6 -3 22 -6 35 -5 16 -2 22 10 22 12 0
16 -9 16 -35z"/>
<path d="M8560 6605 c0 -57 4 -95 10 -95 6 0 10 38 10 95 0 57 -4 95 -10 95
-6 0 -10 -38 -10 -95z"/>
<path d="M8592 6623 c-1 -45 1 -88 4 -97 5 -14 39 -16 275 -16 l269 0 0 95 0
95 -260 0 -260 0 0 -42 c0 -50 -16 -41 -23 12 -2 19 -5 -2 -5 -47z m28 -58 c0
-19 -4 -35 -10 -35 -5 0 -10 16 -10 35 0 19 5 35 10 35 6 0 10 -16 10 -35z"/>
<path d="M4260 6455 l0 -45 2440 0 2440 1 0 39 0 40 -260 0 -260 0 0 -25 c0
-14 -4 -25 -10 -25 -5 0 -10 11 -10 25 l0 25 -230 0 -230 0 0 -25 c0 -16 -6
-25 -15 -25 -9 0 -15 9 -15 25 l0 25 -650 0 -650 0 0 -25 c0 -14 -4 -25 -10
-25 -5 0 -10 11 -10 25 l0 25 -230 0 -230 0 0 -25 c0 -14 -4 -25 -10 -25 -5 0
-10 9 -10 20 0 11 -6 22 -12 24 -7 3 -469 7 -1025 10 l-1013 6 0 -45z"/>
<path d="M4261 6150 c-1 -163 2 -250 9 -250 6 0 10 34 10 83 0 45 5 89 10 97
6 10 10 11 10 3 0 -7 5 -13 10 -13 6 0 10 62 10 165 l0 165 -29 0 -29 0 -1
-250z m16 48 c-3 -8 -6 -5 -6 6 -1 11 2 17 5 13 3 -3 4 -12 1 -19z m10 -70
c-3 -8 -6 -5 -6 6 -1 11 2 17 5 13 3 -3 4 -12 1 -19z"/>
<path d="M5016 6393 c-3 -3 -6 -78 -6 -165 0 -134 2 -158 15 -158 13 0 15 24
15 159 0 145 -5 182 -24 164z"/>
<path d="M5740 6235 l0 -165 115 0 115 0 0 165 0 165 -115 0 -115 0 0 -165z"/>
<path d="M6610 6235 l0 -165 90 0 90 0 0 35 c0 44 18 46 22 3 2 -17 9 -33 16
-36 10 -3 12 30 10 157 -2 99 -7 161 -13 161 -5 0 -10 -9 -10 -20 -1 -31 -20
-28 -23 3 l-3 27 -90 0 -89 0 0 -165z m200 65 c0 -16 0 -33 1 -37 0 -4 -4 -9
-10 -11 -7 -2 -11 12 -11 37 0 23 5 41 10 41 6 0 10 -13 10 -30z m2 -132 c-2
-5 -7 -8 -13 -8 -11 0 -12 63 -1 74 7 8 21 -53 14 -66z"/>
<path d="M7140 6235 c0 -103 4 -165 10 -165 6 0 10 62 10 165 0 103 -4 165
-10 165 -6 0 -10 -62 -10 -165z"/>
<path d="M7990 6235 c0 -103 4 -165 10 -165 6 0 10 62 10 165 0 103 -4 165
-10 165 -6 0 -10 -62 -10 -165z"/>
<path d="M6860 6230 l0 -160 130 0 131 0 -3 158 -3 157 -127 3 -128 3 0 -161z"/>
<path d="M7190 6230 l0 -160 125 0 125 0 0 160 0 160 -125 0 -125 0 0 -160z"/>
<path d="M7480 6230 l0 -160 100 0 101 0 -3 158 -3 157 -97 3 -98 3 0 -161z"/>
<path d="M7710 6230 l0 -160 130 0 131 0 -3 158 -3 157 -127 3 -128 3 0 -161z"/>
<path d="M4360 6220 l0 -150 150 0 150 0 0 150 0 150 -150 0 -150 0 0 -150z"/>
<path d="M4680 6220 l0 -150 150 0 150 0 0 150 0 150 -150 0 -150 0 0 -150z"/>
<path d="M5070 6220 l0 -150 155 0 155 0 0 150 0 150 -155 0 -155 0 0 -150z"/>
<path d="M5400 6220 l0 -150 155 0 155 0 0 150 0 150 -155 0 -155 0 0 -150z"/>
<path d="M6010 6220 l0 -150 135 0 135 0 0 150 0 150 -135 0 -135 0 0 -150z"/>
<path d="M6300 6348 c0 -17 5 -27 12 -25 15 2 23 -37 12 -61 -6 -14 -8 -13
-14 8 -8 23 -8 23 -9 -7 -1 -23 4 -33 14 -33 10 0 15 -11 15 -35 0 -39 -16
-48 -23 -12 -3 16 -5 13 -6 -10 -1 -23 3 -33 14 -33 10 0 15 -11 15 -35 l0
-35 120 0 120 0 0 150 0 150 -119 0 c-86 0 -121 -3 -124 -12 -4 -10 -8 -9 -16
2 -9 12 -11 10 -11 -12z"/>
<path d="M8050 6220 l0 -150 36 0 c36 0 36 0 30 35 -6 28 -4 35 9 35 11 0 15
-10 15 -35 l0 -35 215 0 215 0 0 150 0 150 -214 0 c-162 0 -216 -3 -220 -12
-5 -10 -7 -10 -12 0 -3 6 -21 12 -40 12 l-34 0 0 -150z m90 70 c0 -16 -4 -31
-9 -34 -10 -7 -24 52 -15 65 10 17 24 -2 24 -31z m0 -95 c0 -19 -4 -35 -10
-35 -5 0 -10 6 -10 13 0 6 -3 22 -6 35 -5 16 -2 22 10 22 12 0 16 -9 16 -35z"/>
<path d="M8592 6220 c1 -85 3 -138 5 -117 5 47 23 49 23 2 l0 -35 245 0 245 0
0 150 0 150 -244 0 c-186 0 -246 -3 -249 -12 -4 -10 -8 -9 -16 2 -8 11 -10
-28 -9 -140z m28 69 c0 -24 -4 -38 -10 -34 -5 3 -10 22 -10 41 0 19 5 34 10
34 6 0 10 -18 10 -41z m0 -94 c0 -19 -4 -35 -10 -35 -5 0 -10 16 -10 35 0 19
5 35 10 35 6 0 10 -16 10 -35z"/>
<path d="M6302 6090 c0 -14 2 -19 5 -12 2 6 2 18 0 25 -3 6 -5 1 -5 -13z"/>
<path d="M4360 5975 l0 -75 150 0 151 0 -3 73 -3 72 -147 3 -148 3 0 -76z"/>
<path d="M4680 5975 l0 -75 150 0 151 0 -3 73 -3 72 -147 3 -148 3 0 -76z"/>
<path d="M5016 6043 c-3 -3 -6 -37 -6 -75 0 -54 3 -68 15 -68 12 0 15 14 15
69 0 65 -8 90 -24 74z"/>
<path d="M5077 6043 c-4 -3 -7 -37 -7 -75 l0 -68 155 0 155 0 0 75 0 75 -148
0 c-82 0 -152 -3 -155 -7z"/>
<path d="M5400 5975 l0 -75 155 0 156 0 -3 73 -3 72 -152 3 -153 3 0 -76z"/>
<path d="M6010 5975 l0 -75 135 0 135 0 0 75 0 75 -135 0 -135 0 0 -75z"/>
<path d="M6330 6015 c0 -39 -16 -48 -23 -12 -3 13 -5 8 -6 -15 -1 -26 3 -37
12 -35 7 1 13 -10 15 -25 l3 -28 120 0 119 0 0 75 0 75 -120 0 -120 0 0 -35z"/>
<path d="M6860 5975 l0 -75 130 0 131 0 -3 73 -3 72 -127 3 -128 3 0 -76z"/>
<path d="M7140 5975 c0 -43 4 -75 10 -75 6 0 10 32 10 75 0 43 -4 75 -10 75
-6 0 -10 -32 -10 -75z"/>
<path d="M7190 5975 l0 -75 125 0 125 0 0 75 0 75 -125 0 -125 0 0 -75z"/>
<path d="M7480 5975 l0 -75 100 0 101 0 -3 73 -3 72 -97 3 -98 3 0 -76z"/>
<path d="M7710 5975 l0 -75 130 0 131 0 -3 73 -3 72 -127 3 -128 3 0 -76z"/>
<path d="M7990 5975 c0 -43 4 -75 10 -75 6 0 10 32 10 75 0 43 -4 75 -10 75
-6 0 -10 -32 -10 -75z"/>
<path d="M8050 5975 l0 -75 34 0 c31 0 35 3 33 24 -3 33 17 34 21 1 l3 -25
215 0 214 0 0 75 0 75 -215 0 -215 0 0 -35 c0 -19 -4 -35 -10 -35 -5 0 -12 16
-16 35 -5 30 -10 35 -35 35 l-29 0 0 -75z"/>
<path d="M8620 6015 c0 -44 -17 -46 -23 -2 -2 17 -4 -2 -4 -43 0 -41 2 -60 4
-42 5 40 23 42 23 2 l0 -30 245 0 245 0 0 75 0 75 -245 0 -245 0 0 -35z"/>
<path d="M9150 5975 l0 -75 270 0 270 0 0 75 0 75 -270 0 -270 0 0 -75z"/>
<path d="M4293 5970 c0 -41 2 -58 4 -37 2 20 2 54 0 75 -2 20 -4 3 -4 -38z"/>
<path d="M5740 5970 l0 -70 115 0 115 0 0 70 0 70 -115 0 -115 0 0 -70z"/>
<path d="M6610 5970 l0 -70 90 0 90 0 0 30 c0 17 5 30 10 30 6 0 10 -13 10
-30 0 -20 5 -30 15 -30 12 0 15 14 15 70 0 57 -3 70 -16 70 -11 0 -15 -8 -12
-30 1 -16 -2 -31 -7 -32 -6 -2 -11 12 -13 30 l-3 32 -90 0 -89 0 0 -70z"/>
<path d="M5010 5505 c0 -140 2 -165 15 -165 13 0 15 25 15 165 0 140 -2 165
-15 165 -13 0 -15 -25 -15 -165z"/>
<path d="M5790 5505 c0 -103 4 -165 10 -165 6 0 10 62 10 165 0 103 -4 165
-10 165 -6 0 -10 -62 -10 -165z"/>
<path d="M7070 5505 l0 -165 140 0 140 0 0 165 0 165 -140 0 -140 0 0 -165z"/>
<path d="M7990 5505 c0 -103 4 -165 10 -165 6 0 10 62 10 165 0 103 -4 165
-10 165 -6 0 -10 -62 -10 -165z"/>
<path d="M9180 5420 c0 -160 4 -250 10 -250 6 0 10 90 10 250 0 160 -4 250
-10 250 -6 0 -10 -90 -10 -250z"/>
<path d="M9220 5505 l0 -165 105 0 105 0 0 165 0 165 -105 0 -105 0 0 -165z"/>
<path d="M6840 5500 l0 -160 100 0 100 0 0 160 0 160 -100 0 -100 0 0 -160z"/>
<path d="M8040 5415 c0 -238 1 -245 20 -245 15 0 20 -7 20 -28 l0 -28 85 -2
85 -2 -2 272 -3 273 -52 3 c-51 3 -53 2 -53 -22 0 -33 -16 -34 -24 -1 -5 21
-12 25 -41 25 l-35 0 0 -245z m100 129 c0 -19 -4 -34 -9 -34 -10 0 -23 58 -15
71 11 18 24 -2 24 -37z m0 -89 c0 -19 -4 -35 -10 -35 -5 0 -10 6 -10 13 0 6
-3 22 -6 35 -5 16 -2 22 10 22 12 0 16 -9 16 -35z m0 -90 c0 -39 -14 -47 -24
-12 -9 35 -7 47 9 47 10 0 15 -11 15 -35z m-2 -93 c4 -37 -13 -43 -22 -9 -9
35 -7 49 7 45 6 -3 13 -19 15 -36z m2 -98 c0 -19 -4 -34 -9 -34 -10 0 -23 58
-15 71 11 18 24 -2 24 -37z"/>
<path d="M8280 5505 l0 -155 160 0 160 0 0 25 c0 14 5 25 10 25 6 0 10 -11 10
-25 l0 -25 260 0 260 0 0 155 0 155 -260 0 -260 0 0 -25 c0 -14 -4 -25 -10
-25 -5 0 -10 11 -10 25 l0 25 -160 0 -160 0 0 -155z m340 45 c0 -22 -4 -40
-10 -40 -5 0 -10 18 -10 40 0 22 5 40 10 40 6 0 10 -18 10 -40z m0 -95 c0 -19
-4 -35 -10 -35 -5 0 -10 16 -10 35 0 19 5 35 10 35 6 0 10 -16 10 -35z"/>
<path d="M9154 5505 c0 -82 2 -115 3 -72 2 43 2 110 0 150 -1 40 -3 5 -3 -78z"/>
<path d="M4500 5490 l0 -150 115 0 115 0 0 150 0 150 -115 0 -115 0 0 -150z"/>
<path d="M4750 5490 l0 -150 115 0 115 0 0 150 0 150 -115 0 -115 0 0 -150z"/>
<path d="M5070 5490 l0 -150 165 0 165 0 0 150 0 150 -165 0 -165 0 0 -150z"/>
<path d="M5430 5490 l0 -150 160 0 160 0 0 150 0 150 -160 0 -160 0 0 -150z"/>
<path d="M5850 5490 l0 -150 220 0 220 0 0 150 0 150 -220 0 -220 0 0 -150z"/>
<path d="M6323 5615 c-6 -14 -7 -27 -2 -31 14 -8 11 -74 -3 -74 -9 0 -9 -3 0
-12 16 -16 15 -75 0 -82 -10 -5 -10 -7 0 -12 6 -3 12 -19 12 -35 l0 -29 210 0
210 0 0 150 0 150 -207 0 -208 0 -12 -25z"/>
<path d="M7380 5490 l0 -150 140 0 140 0 0 150 0 150 -140 0 -140 0 0 -150z"/>
<path d="M7680 5490 l0 -150 140 0 140 0 0 150 0 150 -140 0 -140 0 0 -150z"/>
<path d="M6790 5500 c0 -5 5 -10 10 -10 6 0 10 5 10 10 0 6 -4 10 -10 10 -5 0
-10 -4 -10 -10z"/>
<path d="M6790 5410 c0 -5 5 -10 10 -10 6 0 10 5 10 10 0 6 -4 10 -10 10 -5 0
-10 -4 -10 -10z"/>
<path d="M8287 5313 c-4 -3 -7 -37 -7 -75 l0 -68 160 0 c152 0 160 1 160 19 0
11 5 23 10 26 6 4 10 -5 10 -19 l0 -26 260 0 260 0 0 75 0 75 -423 0 c-233 0
-427 -3 -430 -7z m333 -38 c0 -19 -4 -35 -10 -35 -5 0 -10 16 -10 35 0 19 5
35 10 35 6 0 10 -16 10 -35z"/>
<path d="M4500 5240 l0 -71 113 3 112 3 3 68 3 67 -116 0 -115 0 0 -70z"/>
<path d="M4750 5240 l0 -70 115 0 115 0 0 70 0 70 -115 0 -115 0 0 -70z"/>
<path d="M5012 5243 c4 -86 22 -85 26 2 2 54 0 65 -13 65 -13 0 -15 -11 -13
-67z"/>
<path d="M5072 5243 l3 -68 163 -3 162 -2 0 70 0 70 -165 0 -166 0 3 -67z"/>
<path d="M5430 5240 l0 -70 160 0 160 0 0 70 0 70 -160 0 -160 0 0 -70z"/>
<path d="M5790 5240 c0 -40 4 -70 10 -70 6 0 10 30 10 70 0 40 -4 70 -10 70
-6 0 -10 -30 -10 -70z"/>
<path d="M5850 5240 l0 -70 220 0 220 0 0 70 0 70 -220 0 -220 0 0 -70z"/>
<path d="M6328 5280 c2 -17 -1 -36 -7 -44 -8 -10 -9 -16 -1 -21 5 -3 10 -15
10 -26 0 -18 9 -19 210 -19 l210 0 0 70 0 70 -213 0 -214 0 5 -30z"/>
<path d="M6840 5240 l0 -70 100 0 100 0 0 70 0 70 -100 0 -100 0 0 -70z"/>
<path d="M7070 5240 l0 -71 138 3 137 3 3 68 3 67 -141 0 -140 0 0 -70z"/>
<path d="M7382 5243 l3 -68 138 -3 137 -3 0 71 0 70 -140 0 -141 0 3 -67z"/>
<path d="M7680 5240 l0 -71 138 3 137 3 3 68 3 67 -141 0 -140 0 0 -70z"/>
<path d="M7993 5245 c0 -38 2 -53 4 -32 2 20 2 52 0 70 -2 17 -4 1 -4 -38z"/>
<path d="M9153 5240 c0 -41 2 -58 4 -37 2 20 2 54 0 75 -2 20 -4 3 -4 -38z"/>
<path d="M9220 5240 l0 -70 105 0 105 0 0 70 0 70 -105 0 -105 0 0 -70z"/>
<path d="M9450 5240 l0 -70 120 0 120 0 0 70 0 70 -120 0 -120 0 0 -70z"/>
<path d="M8080 5040 c0 -29 4 -40 15 -40 8 0 15 7 15 15 0 8 7 15 15 15 8 0
15 -7 15 -15 0 -12 13 -15 60 -15 l60 0 0 40 0 40 -60 0 c-47 0 -60 -3 -60
-15 0 -8 -4 -15 -10 -15 -5 0 -10 7 -10 15 0 8 -9 15 -20 15 -17 0 -20 -7 -20
-40z"/>
<path d="M8080 4960 c0 -13 -7 -20 -20 -20 -19 0 -20 -7 -20 -225 0 -218 1
-225 20 -225 16 0 20 -7 20 -30 0 -23 5 -30 19 -30 14 0 18 5 14 20 -4 14 0
20 11 20 9 0 16 -8 16 -20 0 -18 7 -20 55 -20 l55 0 -2 273 -3 272 -49 3 c-32
2 -52 -1 -57 -10 -7 -10 -11 -10 -21 0 -18 18 -38 14 -38 -8z m58 -49 c2 -12
0 -30 -4 -39 -6 -14 -8 -13 -14 8 -12 39 -11 62 3 58 6 -3 13 -15 15 -27z m2
-107 c0 -19 -4 -34 -9 -34 -10 0 -23 58 -15 71 11 18 24 -2 24 -37z m0 -89 c0
-19 -4 -35 -10 -35 -5 0 -10 6 -10 13 0 6 -3 22 -6 35 -5 16 -2 22 10 22 12 0
16 -9 16 -35z m0 -90 c0 -39 -14 -47 -24 -12 -9 35 -7 47 9 47 10 0 15 -11 15
-35z m-2 -84 c2 -12 0 -30 -4 -39 -6 -14 -8 -13 -14 8 -12 39 -11 62 3 58 6
-3 13 -15 15 -27z"/>
<path d="M4500 4800 l0 -140 115 0 115 0 0 140 0 140 -115 0 -115 0 0 -140z"/>
<path d="M4750 4800 l0 -140 115 0 115 0 0 140 0 140 -115 0 -115 0 0 -140z"/>
<path d="M5010 4800 c0 -118 2 -140 15 -140 13 0 15 22 15 140 0 118 -2 140
-15 140 -13 0 -15 -22 -15 -140z"/>
<path d="M5070 4800 l0 -140 165 0 165 0 0 140 0 140 -165 0 -165 0 0 -140z"/>
<path d="M5430 4800 l0 -140 160 0 160 0 0 140 0 140 -160 0 -160 0 0 -140z"/>
<path d="M5790 4800 c0 -87 4 -140 10 -140 6 0 10 53 10 140 0 87 -4 140 -10
140 -6 0 -10 -53 -10 -140z"/>
<path d="M5850 4800 l0 -140 220 0 220 0 0 140 0 140 -220 0 -220 0 0 -140z"/>
<path d="M6328 4910 c2 -17 -1 -36 -7 -44 -8 -10 -9 -16 -1 -21 14 -9 13 -72
-2 -79 -10 -5 -10 -7 0 -12 14 -7 17 -74 2 -74 -5 0 -10 -4 -10 -10 0 -6 80
-10 220 -10 l220 0 0 140 0 140 -213 0 -214 0 5 -30z"/>
<path d="M6840 4800 l0 -140 100 0 100 0 0 140 0 140 -100 0 -100 0 0 -140z"/>
<path d="M7070 4800 l0 -140 140 0 140 0 0 140 0 140 -140 0 -140 0 0 -140z"/>
<path d="M7380 4800 l0 -140 140 0 140 0 0 140 0 140 -140 0 -140 0 0 -140z"/>
<path d="M7680 4800 l0 -140 140 0 140 0 0 140 0 140 -140 0 -140 0 0 -140z"/>
<path d="M7990 4800 c0 -87 4 -140 10 -140 6 0 10 53 10 140 0 87 -4 140 -10
140 -6 0 -10 -53 -10 -140z"/>
<path d="M8280 4805 l0 -135 430 0 430 0 0 135 0 135 -260 0 -260 0 0 -41 c0
-24 -4 -38 -10 -34 -5 3 -10 22 -10 41 l0 34 -160 0 -160 0 0 -135z m340 5 c0
-22 -4 -40 -10 -40 -11 0 -14 63 -3 73 11 12 13 8 13 -33z m0 -95 c0 -19 -4
-35 -10 -35 -5 0 -10 16 -10 35 0 19 5 35 10 35 6 0 10 -16 10 -35z"/>
<path d="M9154 4805 c0 -77 2 -107 3 -67 2 40 2 103 0 140 -2 37 -3 4 -3 -73z"/>
<path d="M9180 4715 c0 -143 4 -225 10 -225 6 0 10 82 10 225 0 143 -4 225
-10 225 -6 0 -10 -82 -10 -225z"/>
<path d="M9220 4800 l0 -140 105 0 105 0 0 140 0 140 -105 0 -105 0 0 -140z"/>
<path d="M9450 4800 l0 -140 120 0 120 0 0 140 0 140 -120 0 -120 0 0 -140z"/>
<path d="M6790 4760 c0 -5 5 -10 10 -10 6 0 10 5 10 10 0 6 -4 10 -10 10 -5 0
-10 -4 -10 -10z"/>
<path d="M6790 4670 c0 -5 5 -10 10 -10 6 0 10 5 10 10 0 6 -4 10 -10 10 -5 0
-10 -4 -10 -10z"/>
<path d="M8287 4633 c-4 -3 -7 -37 -7 -75 l0 -68 163 0 163 0 -4 40 c-3 25 0
40 7 40 6 0 11 -17 11 -40 l0 -40 260 0 260 0 0 75 0 75 -257 -2 -258 -3 -3
-22 c-5 -31 -22 -29 -22 2 l0 25 -153 0 c-85 0 -157 -3 -160 -7z"/>
<path d="M4500 4560 l0 -70 115 0 115 0 0 70 0 70 -115 0 -115 0 0 -70z"/>
<path d="M4750 4560 l0 -70 115 0 115 0 0 70 0 70 -115 0 -115 0 0 -70z"/>
<path d="M5010 4560 c0 -56 3 -70 15 -70 12 0 15 14 15 70 0 56 -3 70 -15 70
-12 0 -15 -14 -15 -70z"/>
<path d="M5070 4560 l0 -70 165 0 165 0 0 70 0 70 -165 0 -165 0 0 -70z"/>
<path d="M5430 4560 l0 -70 160 0 160 0 0 70 0 70 -160 0 -160 0 0 -70z"/>
<path d="M5790 4560 c0 -40 4 -70 10 -70 6 0 10 30 10 70 0 40 -4 70 -10 70
-6 0 -10 -30 -10 -70z"/>
<path d="M5850 4560 l0 -70 220 0 220 0 0 70 0 70 -220 0 -220 0 0 -70z"/>
<path d="M6330 4611 c0 -11 -6 -21 -12 -24 -10 -3 -10 -7 1 -20 7 -10 11 -30
9 -47 l-5 -30 214 0 213 0 0 70 0 70 -210 0 c-200 0 -210 -1 -210 -19z"/>
<path d="M6840 4560 l0 -70 100 0 100 0 0 70 0 70 -100 0 -100 0 0 -70z"/>
<path d="M7070 4560 l0 -70 140 0 140 0 0 70 0 70 -140 0 -140 0 0 -70z"/>
<path d="M7380 4560 l0 -70 140 0 140 0 0 70 0 70 -140 0 -140 0 0 -70z"/>
<path d="M7680 4560 l0 -70 140 0 140 0 0 70 0 70 -140 0 -140 0 0 -70z"/>
<path d="M9153 4560 c0 -41 2 -58 4 -37 2 20 2 54 0 75 -2 20 -4 3 -4 -38z"/>
<path d="M9220 4560 l0 -70 105 0 105 0 0 70 0 70 -105 0 -105 0 0 -70z"/>
<path d="M9450 4560 l0 -70 120 0 120 0 0 70 0 70 -120 0 -120 0 0 -70z"/>
<path d="M6790 4580 c0 -5 5 -10 10 -10 6 0 10 5 10 10 0 6 -4 10 -10 10 -5 0
-10 -4 -10 -10z"/>
<path d="M8080 4360 c0 -34 3 -40 21 -40 18 0 20 4 14 30 -5 23 -3 30 9 30 11
0 16 -9 16 -30 l0 -30 60 0 60 0 0 40 0 40 -90 0 -90 0 0 -40z"/>
<path d="M8080 4280 c0 -13 -7 -20 -20 -20 -19 0 -20 -7 -20 -225 0 -218 1
-225 20 -225 16 0 20 -7 20 -30 0 -24 4 -30 20 -30 18 0 20 5 18 35 -2 19 2
34 7 35 6 0 11 -15 13 -35 l3 -35 55 0 54 0 -2 273 -3 272 -82 3 c-78 3 -83 2
-83 -18z m60 -25 c0 -39 -14 -47 -24 -12 -9 35 -7 47 9 47 10 0 15 -11 15 -35z
m0 -95 c0 -16 -4 -31 -9 -34 -10 -7 -24 52 -15 65 10 17 24 -2 24 -31z m0 -95
c0 -19 -4 -35 -10 -35 -5 0 -10 6 -10 13 0 6 -3 22 -6 35 -5 16 -2 22 10 22
12 0 16 -9 16 -35z m0 -90 c0 -19 -4 -35 -10 -35 -5 0 -10 6 -10 13 0 6 -3 22
-6 35 -5 16 -2 22 10 22 12 0 16 -9 16 -35z m0 -90 c0 -39 -14 -47 -24 -12 -9
35 -7 47 9 47 10 0 15 -11 15 -35z"/>
<path d="M4500 4120 l0 -140 115 0 115 0 0 140 0 140 -115 0 -115 0 0 -140z"/>
<path d="M4750 4120 l0 -140 115 0 115 0 0 140 0 140 -115 0 -115 0 0 -140z"/>
<path d="M5010 4120 c0 -118 2 -140 15 -140 13 0 15 22 15 140 0 118 -2 140
-15 140 -13 0 -15 -22 -15 -140z"/>
<path d="M5070 4120 l0 -140 165 0 165 0 0 140 0 140 -165 0 -165 0 0 -140z"/>
<path d="M5430 4120 l0 -140 160 0 160 0 0 140 0 140 -160 0 -160 0 0 -140z"/>
<path d="M5790 4120 c0 -87 4 -140 10 -140 6 0 10 53 10 140 0 87 -4 140 -10
140 -6 0 -10 -53 -10 -140z"/>
<path d="M5850 4120 l0 -140 220 0 220 0 0 140 0 140 -220 0 -220 0 0 -140z"/>
<path d="M6330 4242 c0 -10 -5 -23 -11 -29 -8 -8 -8 -13 0 -17 6 -4 11 -20 11
-36 0 -16 -5 -32 -11 -36 -8 -4 -8 -9 0 -17 15 -15 14 -74 -1 -81 -10 -5 -10
-7 0 -12 6 -3 12 -12 12 -20 0 -12 35 -14 210 -14 l210 0 0 140 0 140 -210 0
c-196 0 -210 -1 -210 -18z"/>
<path d="M6840 4120 l0 -140 100 0 100 0 0 140 0 140 -100 0 -100 0 0 -140z"/>
<path d="M7070 4120 l0 -140 140 0 140 0 0 140 0 140 -140 0 -140 0 0 -140z"/>
<path d="M7380 4120 l0 -140 140 0 140 0 0 140 0 140 -140 0 -140 0 0 -140z"/>
<path d="M7680 4120 l0 -140 140 0 140 0 0 140 0 140 -140 0 -140 0 0 -140z"/>
<path d="M7990 4120 c0 -87 4 -140 10 -140 6 0 10 53 10 140 0 87 -4 140 -10
140 -6 0 -10 -53 -10 -140z"/>
<path d="M8280 4125 l0 -135 159 0 c118 0 161 3 165 13 5 10 7 10 12 0 4 -10
67 -13 265 -13 l259 0 0 135 0 135 -260 0 c-253 0 -260 -1 -260 -20 0 -11 -4
-20 -10 -20 -5 0 -10 9 -10 20 0 19 -7 20 -160 20 l-160 0 0 -135z m340 34 c0
-24 -4 -38 -10 -34 -5 3 -10 22 -10 41 0 19 5 34 10 34 6 0 10 -18 10 -41z m0
-94 c0 -19 -4 -35 -10 -35 -5 0 -10 16 -10 35 0 19 5 35 10 35 6 0 10 -16 10
-35z"/>
<path d="M9154 4125 c0 -77 2 -107 3 -67 2 40 2 103 0 140 -2 37 -3 4 -3 -73z"/>
<path d="M9180 4035 c0 -143 4 -225 10 -225 6 0 10 82 10 225 0 143 -4 225
-10 225 -6 0 -10 -82 -10 -225z"/>
<path d="M9220 4120 l0 -140 105 0 105 0 0 140 0 140 -105 0 -105 0 0 -140z"/>
<path d="M9450 4120 l0 -140 120 0 120 0 0 140 0 140 -120 0 -120 0 0 -140z"/>
<path d="M6790 4210 c0 -5 5 -10 10 -10 6 0 10 5 10 10 0 6 -4 10 -10 10 -5 0
-10 -4 -10 -10z"/>
<path d="M6790 4020 c0 -5 5 -10 10 -10 6 0 10 5 10 10 0 6 -4 10 -10 10 -5 0
-10 -4 -10 -10z"/>
<path d="M8287 3953 c-4 -3 -7 -37 -7 -75 l0 -68 159 0 c118 0 161 3 165 13 5
10 7 10 12 0 4 -10 67 -13 265 -13 l259 0 0 75 0 75 -253 0 c-189 0 -256 -3
-266 -12 -11 -10 -14 -10 -18 0 -3 9 -44 12 -157 12 -84 0 -156 -3 -159 -7z
m333 -68 c0 -19 -4 -35 -10 -35 -5 0 -10 16 -10 35 0 19 5 35 10 35 6 0 10
-16 10 -35z"/>
<path d="M4500 3885 l0 -65 115 0 115 0 0 65 0 65 -115 0 -115 0 0 -65z"/>
<path d="M4750 3885 l0 -65 115 0 115 0 0 65 0 65 -115 0 -115 0 0 -65z"/>
<path d="M5010 3885 c0 -51 3 -65 15 -65 12 0 15 14 15 65 0 51 -3 65 -15 65
-12 0 -15 -14 -15 -65z"/>
<path d="M5070 3885 l0 -65 165 0 165 0 0 65 0 65 -165 0 -165 0 0 -65z"/>
<path d="M5430 3885 l0 -65 160 0 160 0 0 65 0 65 -160 0 -160 0 0 -65z"/>
<path d="M5790 3885 c0 -37 4 -65 10 -65 6 0 10 28 10 65 0 37 -4 65 -10 65
-6 0 -10 -28 -10 -65z"/>
<path d="M5850 3885 l0 -65 220 0 220 0 0 65 0 65 -220 0 -220 0 0 -65z"/>
<path d="M6320 3939 c-11 -8 -12 -12 -2 -16 14 -6 16 -69 2 -78 -31 -19 21
-25 216 -25 l214 0 0 65 0 65 -207 0 c-130 0 -214 -4 -223 -11z"/>
<path d="M6840 3885 l0 -65 100 0 100 0 0 65 0 65 -100 0 -100 0 0 -65z"/>
<path d="M7070 3885 l0 -65 140 0 140 0 0 65 0 65 -140 0 -140 0 0 -65z"/>
<path d="M7380 3885 l0 -65 140 0 140 0 0 65 0 65 -140 0 -140 0 0 -65z"/>
<path d="M7680 3885 l0 -65 140 0 140 0 0 65 0 65 -140 0 -140 0 0 -65z"/>
<path d="M9153 3880 c0 -41 2 -58 4 -37 2 20 2 54 0 75 -2 20 -4 3 -4 -38z"/>
<path d="M9220 3880 l0 -70 105 0 105 0 0 70 0 70 -105 0 -105 0 0 -70z"/>
<path d="M9450 3880 l0 -70 120 0 120 0 0 70 0 70 -120 0 -120 0 0 -70z"/>
<path d="M6790 3930 c0 -5 5 -10 10 -10 6 0 10 5 10 10 0 6 -4 10 -10 10 -5 0
-10 -4 -10 -10z"/>
<path d="M6790 3840 c0 -5 5 -10 11 -10 5 0 7 5 4 10 -3 6 -8 10 -11 10 -2 0
-4 -4 -4 -10z"/>
<path d="M8080 3680 l0 -40 90 0 90 0 0 40 0 40 -60 0 -60 0 0 -30 c0 -16 -4
-30 -9 -30 -5 0 -11 14 -14 30 -10 47 -37 39 -37 -10z"/>
<path d="M8080 3601 c0 -14 -6 -21 -20 -21 -19 0 -20 -7 -20 -202 0 -214 4
-248 26 -248 9 0 14 -11 14 -30 0 -31 17 -39 37 -19 8 8 13 8 17 0 4 -6 32
-11 62 -11 l54 0 -2 273 -3 272 -52 3 c-51 3 -53 2 -53 -22 0 -32 -17 -34 -22
-4 -4 30 -38 37 -38 9z m60 -86 c0 -39 -14 -47 -24 -12 -9 35 -7 47 9 47 10 0
15 -11 15 -35z m0 -101 c0 -19 -4 -34 -9 -34 -10 0 -23 58 -15 71 11 18 24 -2
24 -37z m0 -89 c0 -19 -4 -35 -10 -35 -5 0 -10 6 -10 13 0 6 -3 22 -6 35 -5
16 -2 22 10 22 12 0 16 -9 16 -35z m0 -90 c0 -19 -4 -35 -10 -35 -5 0 -10 6
-10 13 0 6 -3 22 -6 35 -5 16 -2 22 10 22 12 0 16 -9 16 -35z m-2 -93 c4 -37
-13 -43 -22 -9 -9 35 -7 49 7 45 6 -3 13 -19 15 -36z"/>
<path d="M4500 3440 l0 -140 115 0 116 0 -3 138 -3 137 -112 3 -113 3 0 -141z"/>
<path d="M4750 3440 l0 -140 115 0 115 0 0 140 0 140 -115 0 -115 0 0 -140z"/>
<path d="M5010 3440 c0 -118 2 -140 15 -140 13 0 15 22 15 140 0 118 -2 140
-15 140 -13 0 -15 -22 -15 -140z"/>
<path d="M5070 3440 l0 -140 165 0 165 0 0 140 0 140 -165 0 -165 0 0 -140z"/>
<path d="M5430 3440 l0 -140 160 0 160 0 0 140 0 140 -160 0 -160 0 0 -140z"/>
<path d="M5790 3440 c0 -87 4 -140 10 -140 6 0 10 53 10 140 0 87 -4 140 -10
140 -6 0 -10 -53 -10 -140z"/>
<path d="M5850 3440 l0 -140 220 0 220 0 0 140 0 140 -220 0 -220 0 0 -140z"/>
<path d="M6320 3569 c-11 -8 -12 -12 -2 -16 15 -6 16 -65 1 -80 -8 -8 -8 -13
0 -17 15 -10 14 -76 -1 -76 -9 0 -9 -3 0 -12 7 -7 12 -25 12 -40 l0 -28 210 0
210 0 0 140 0 140 -207 0 c-130 0 -214 -4 -223 -11z"/>
<path d="M6840 3440 l0 -140 100 0 100 0 0 140 0 140 -100 0 -100 0 0 -140z"/>
<path d="M7070 3440 l0 -140 140 0 140 0 0 140 0 140 -140 0 -140 0 0 -140z"/>
<path d="M7380 3440 l0 -140 140 0 140 0 0 140 0 140 -140 0 -140 0 0 -140z"/>
<path d="M7680 3440 l0 -140 140 0 141 0 -3 138 -3 137 -137 3 -138 3 0 -141z"/>
<path d="M7990 3440 c0 -87 4 -140 10 -140 6 0 10 53 10 140 0 87 -4 140 -10
140 -6 0 -10 -53 -10 -140z"/>
<path d="M8280 3445 l0 -135 160 0 160 0 0 25 c0 14 5 25 10 25 6 0 10 -11 10
-25 l0 -25 260 0 260 0 0 135 0 135 -430 0 -430 -1 0 -134z m340 70 c0 -19 -4
-35 -10 -35 -5 0 -10 16 -10 35 0 19 5 35 10 35 6 0 10 -16 10 -35z m0 -95 c0
-22 -4 -40 -10 -40 -5 0 -10 18 -10 40 0 22 5 40 10 40 6 0 10 -18 10 -40z"/>
<path d="M9154 3445 c0 -77 2 -107 3 -67 2 40 2 103 0 140 -2 37 -3 4 -3 -73z"/>
<path d="M9180 3355 c0 -143 4 -225 10 -225 6 0 10 82 10 225 0 143 -4 225
-10 225 -6 0 -10 -82 -10 -225z"/>
<path d="M9220 3440 l0 -140 105 0 105 0 0 140 0 140 -105 0 -105 0 0 -140z"/>
<path d="M9450 3440 l0 -140 120 0 120 0 0 140 0 140 -120 0 -120 0 0 -140z"/>
<path d="M6790 3560 c0 -5 5 -10 10 -10 6 0 10 5 10 10 0 6 -4 10 -10 10 -5 0
-10 -4 -10 -10z"/>
<path d="M6790 3370 c0 -5 5 -10 10 -10 6 0 10 5 10 10 0 6 -4 10 -10 10 -5 0
-10 -4 -10 -10z"/>
<path d="M8287 3273 c-4 -3 -7 -37 -7 -75 l0 -68 160 0 160 0 0 25 c0 14 5 25
10 25 6 0 10 -11 10 -25 l0 -25 260 0 261 0 -3 73 -3 72 -421 3 c-231 1 -424
-1 -427 -5z m333 -38 c0 -19 -4 -35 -10 -35 -5 0 -10 16 -10 35 0 19 5 35 10
35 6 0 10 -16 10 -35z"/>
<path d="M4500 3200 l0 -71 113 3 112 3 3 68 3 67 -116 0 -115 0 0 -70z"/>
<path d="M4750 3200 l0 -70 115 0 115 0 0 70 0 70 -115 0 -115 0 0 -70z"/>
<path d="M5010 3200 c0 -56 3 -70 15 -70 12 0 15 14 15 70 0 56 -3 70 -15 70
-12 0 -15 -14 -15 -70z"/>
<path d="M5070 3200 l0 -70 165 0 165 0 0 70 0 70 -165 0 -165 0 0 -70z"/>
<path d="M5430 3200 l0 -70 160 0 160 0 0 70 0 70 -160 0 -160 0 0 -70z"/>
<path d="M5790 3200 c0 -40 4 -70 10 -70 6 0 10 30 10 70 0 40 -4 70 -10 70
-6 0 -10 -30 -10 -70z"/>
<path d="M5850 3200 l0 -70 220 0 220 0 0 70 0 70 -220 0 -220 0 0 -70z"/>
<path d="M6330 3236 c0 -19 -6 -36 -12 -39 -10 -4 -10 -7 0 -18 6 -7 12 -21
12 -31 0 -17 14 -18 210 -18 l210 0 0 70 0 70 -210 0 -210 0 0 -34z"/>
<path d="M6840 3200 l0 -70 100 0 100 0 0 70 0 70 -100 0 -100 0 0 -70z"/>
<path d="M7070 3200 l0 -70 140 0 140 0 0 70 0 70 -140 0 -140 0 0 -70z"/>
<path d="M7380 3200 l0 -70 140 0 140 0 0 70 0 70 -140 0 -140 0 0 -70z"/>
<path d="M7680 3200 l0 -71 138 3 137 3 3 68 3 67 -141 0 -140 0 0 -70z"/>
<path d="M7993 3205 c0 -38 2 -53 4 -32 2 20 2 52 0 70 -2 17 -4 1 -4 -38z"/>
<path d="M9153 3200 c0 -41 2 -58 4 -37 2 20 2 54 0 75 -2 20 -4 3 -4 -38z"/>
<path d="M9220 3200 l0 -70 105 0 105 0 0 70 0 70 -105 0 -105 0 0 -70z"/>
<path d="M9450 3200 l0 -70 120 0 120 0 0 70 0 70 -120 0 -120 0 0 -70z"/>
<path d="M6790 3190 c0 -5 5 -10 10 -10 6 0 10 5 10 10 0 6 -4 10 -10 10 -5 0
-10 -4 -10 -10z"/>
<path d="M8080 3000 c0 -29 4 -40 15 -40 8 0 15 7 15 15 0 8 7 15 15 15 8 0
15 -7 15 -15 0 -12 13 -15 60 -15 l60 0 0 40 0 40 -60 0 c-47 0 -60 -3 -60
-15 0 -8 -4 -15 -10 -15 -5 0 -10 7 -10 15 0 8 -9 15 -20 15 -17 0 -20 -7 -20
-40z"/>
<path d="M8080 2913 c0 -7 -9 -13 -20 -13 -19 0 -20 -7 -20 -225 0 -218 1
-225 20 -225 16 0 20 -7 20 -30 0 -22 5 -30 18 -30 11 0 18 7 18 18 -1 26 19
30 22 5 3 -21 9 -23 58 -23 l54 0 0 270 0 270 -85 -1 c-64 -2 -85 -5 -85 -16z
m60 -48 c0 -39 -14 -47 -24 -12 -9 35 -7 47 9 47 10 0 15 -11 15 -35z m-2 -84
c2 -12 0 -30 -4 -39 -6 -14 -8 -13 -14 8 -12 39 -11 62 3 58 6 -3 13 -15 15
-27z m2 -106 c0 -19 -4 -35 -10 -35 -5 0 -10 6 -10 13 0 6 -3 22 -6 35 -5 16
-2 22 10 22 12 0 16 -9 16 -35z m0 -90 c0 -19 -4 -35 -10 -35 -5 0 -10 6 -10
13 0 6 -3 22 -6 35 -5 16 -2 22 10 22 12 0 16 -9 16 -35z m0 -90 c0 -39 -14
-47 -24 -12 -9 35 -7 47 9 47 10 0 15 -11 15 -35z"/>
<path d="M4500 2760 l0 -140 115 0 116 0 -3 138 -3 137 -112 3 -113 3 0 -141z"/>
<path d="M4750 2760 l0 -140 115 0 115 0 0 140 0 140 -115 0 -115 0 0 -140z"/>
<path d="M5016 2893 c-3 -3 -6 -66 -6 -140 0 -112 2 -133 15 -133 13 0 15 22
15 134 0 123 -6 157 -24 139z"/>
<path d="M5077 2893 c-4 -3 -7 -66 -7 -140 l0 -133 165 0 165 0 0 140 0 140
-158 0 c-87 0 -162 -3 -165 -7z"/>
<path d="M5430 2760 l0 -140 160 0 160 0 0 140 0 140 -160 0 -160 0 0 -140z"/>
<path d="M5790 2760 c0 -87 4 -140 10 -140 6 0 10 53 10 140 0 87 -4 140 -10
140 -6 0 -10 -53 -10 -140z"/>
<path d="M5850 2760 l0 -140 220 0 220 0 0 140 0 140 -220 0 -220 0 0 -140z"/>
<path d="M6330 2866 c0 -19 -6 -36 -12 -39 -10 -4 -10 -7 0 -18 15 -16 16 -61
1 -76 -8 -8 -8 -13 0 -17 14 -9 15 -76 1 -76 -5 0 -10 -4 -10 -10 0 -6 80 -10
220 -10 l220 0 0 140 0 140 -210 0 -210 0 0 -34z"/>
<path d="M6840 2760 l0 -140 100 0 100 0 0 140 0 140 -100 0 -100 0 0 -140z"/>
<path d="M7070 2760 l0 -140 140 0 141 0 -3 138 -3 137 -137 3 -138 3 0 -141z"/>
<path d="M7387 2893 c-4 -3 -7 -66 -7 -140 l0 -133 140 0 140 0 0 140 0 140
-133 0 c-74 0 -137 -3 -140 -7z"/>
<path d="M7680 2760 l0 -140 140 0 141 0 -3 138 -3 137 -137 3 -138 3 0 -141z"/>
<path d="M7990 2760 c0 -87 4 -140 10 -140 6 0 10 53 10 140 0 87 -4 140 -10
140 -6 0 -10 -53 -10 -140z"/>
<path d="M8280 2765 l0 -135 430 0 430 0 0 135 0 135 -260 0 -260 0 0 -35 c0
-19 -4 -35 -10 -35 -5 0 -10 16 -10 35 l0 35 -160 0 -160 0 0 -135z m340 4 c0
-24 -4 -38 -10 -34 -5 3 -10 22 -10 41 0 19 5 34 10 34 6 0 10 -18 10 -41z m0
-94 c0 -19 -4 -35 -10 -35 -5 0 -10 16 -10 35 0 19 5 35 10 35 6 0 10 -16 10
-35z"/>
<path d="M9154 2765 c0 -77 2 -107 3 -67 2 40 2 103 0 140 -2 37 -3 4 -3 -73z"/>
<path d="M9180 2675 c0 -143 4 -225 10 -225 6 0 10 82 10 225 0 143 -4 225
-10 225 -6 0 -10 -82 -10 -225z"/>
<path d="M9220 2760 l0 -140 105 0 105 0 0 140 0 140 -105 0 -105 0 0 -140z"/>
<path d="M9450 2760 l0 -140 120 0 120 0 0 140 0 140 -120 0 -120 0 0 -140z"/>
<path d="M6790 2820 c0 -5 5 -10 10 -10 6 0 10 5 10 10 0 6 -4 10 -10 10 -5 0
-10 -4 -10 -10z"/>
<path d="M6790 2630 c0 -5 5 -10 10 -10 6 0 10 5 10 10 0 6 -4 10 -10 10 -5 0
-10 -4 -10 -10z"/>
<path d="M4500 2520 l0 -70 115 0 115 0 0 70 0 70 -115 0 -115 0 0 -70z"/>
<path d="M4750 2520 l0 -70 115 0 115 0 0 70 0 70 -115 0 -115 0 0 -70z"/>
<path d="M5010 2520 c0 -56 3 -70 15 -70 12 0 15 14 15 70 0 56 -3 70 -15 70
-12 0 -15 -14 -15 -70z"/>
<path d="M5070 2520 l0 -70 165 0 165 0 0 70 0 70 -165 0 -165 0 0 -70z"/>
<path d="M5430 2520 l0 -70 160 0 160 0 0 70 0 70 -160 0 -160 0 0 -70z"/>
<path d="M5790 2520 c0 -40 4 -70 10 -70 6 0 10 30 10 70 0 40 -4 70 -10 70
-6 0 -10 -30 -10 -70z"/>
<path d="M5850 2520 l0 -70 220 0 220 0 0 70 0 70 -220 0 -220 0 0 -70z"/>
<path d="M6330 2571 c0 -11 -6 -22 -12 -25 -10 -5 -10 -7 0 -12 6 -3 12 -21
12 -39 0 -18 -6 -36 -12 -38 -7 -3 87 -6 210 -6 l222 -1 0 70 0 70 -210 0
c-200 0 -210 -1 -210 -19z"/>
<path d="M6840 2520 l0 -70 100 0 100 0 0 70 0 70 -100 0 -100 0 0 -70z"/>
<path d="M7070 2520 l0 -70 140 0 140 0 0 70 0 70 -140 0 -140 0 0 -70z"/>
<path d="M7380 2520 l0 -70 140 0 140 0 0 70 0 70 -140 0 -140 0 0 -70z"/>
<path d="M7680 2520 l0 -70 140 0 140 0 0 70 0 70 -140 0 -140 0 0 -70z"/>
<path d="M7993 2520 c0 -41 2 -58 4 -37 2 20 2 54 0 75 -2 20 -4 3 -4 -38z"/>
<path d="M8280 2520 l0 -70 430 0 430 0 0 70 0 70 -260 0 c-253 0 -260 -1
-260 -20 0 -11 -4 -20 -10 -20 -5 0 -10 9 -10 20 0 19 -7 20 -160 20 l-160 0
0 -70z m340 -25 c0 -19 -4 -35 -10 -35 -5 0 -10 16 -10 35 0 19 5 35 10 35 6
0 10 -16 10 -35z"/>
<path d="M9153 2520 c0 -41 2 -58 4 -37 2 20 2 54 0 75 -2 20 -4 3 -4 -38z"/>
<path d="M9220 2520 l0 -70 105 0 105 0 0 70 0 70 -105 0 -105 0 0 -70z"/>
<path d="M9450 2520 l0 -70 120 0 120 0 0 70 0 70 -120 0 -120 0 0 -70z"/>
<path d="M6790 2540 c0 -5 5 -10 10 -10 6 0 10 5 10 10 0 6 -4 10 -10 10 -5 0
-10 -4 -10 -10z"/>
<path d="M8080 2320 c0 -34 3 -40 21 -40 18 0 20 4 14 30 -5 23 -3 30 9 30 11
0 16 -9 16 -30 l0 -30 60 0 60 0 0 40 0 40 -90 0 -90 0 0 -40z"/>
<path d="M8077 2229 c-4 -15 -11 -20 -21 -16 -14 6 -16 -19 -16 -218 0 -218 1
-225 20 -225 16 0 20 -7 20 -30 l0 -30 85 0 85 0 0 270 0 270 -55 0 -55 0 0
-35 c0 -19 -4 -35 -9 -35 -5 0 -12 16 -15 35 -8 39 -31 47 -39 14z m63 -104
c0 -39 -14 -47 -24 -12 -9 35 -7 47 9 47 10 0 15 -11 15 -35z m0 -95 c0 -16
-4 -31 -9 -34 -10 -7 -24 52 -15 65 10 17 24 -2 24 -31z m0 -95 c0 -19 -4 -35
-10 -35 -5 0 -10 6 -10 13 0 6 -3 22 -6 35 -5 16 -2 22 10 22 12 0 16 -9 16
-35z m0 -90 c0 -19 -4 -35 -10 -35 -5 0 -10 6 -10 13 0 6 -3 22 -6 35 -5 16
-2 22 10 22 12 0 16 -9 16 -35z m0 -90 c0 -39 -14 -47 -24 -12 -9 35 -7 47 9
47 10 0 15 -11 15 -35z"/>
<path d="M4500 2080 l0 -140 115 0 116 0 -3 138 -3 137 -112 3 -113 3 0 -141z"/>
<path d="M4750 2080 l0 -140 115 0 116 0 -3 138 -3 137 -112 3 -113 3 0 -141z"/>
<path d="M5077 2213 c-4 -3 -7 -66 -7 -140 l0 -133 165 0 165 0 0 140 0 140
-158 0 c-87 0 -162 -3 -165 -7z"/>
<path d="M5430 2080 l0 -140 160 0 160 0 0 140 0 140 -160 0 -160 0 0 -140z"/>
<path d="M5857 2213 c-4 -3 -7 -66 -7 -140 l0 -133 220 0 220 0 0 140 0 140
-213 0 c-118 0 -217 -3 -220 -7z"/>
<path d="M6330 2201 c0 -11 -6 -22 -12 -25 -10 -5 -10 -7 0 -12 15 -7 16 -66
1 -81 -8 -8 -8 -13 0 -17 13 -9 15 -63 2 -70 -5 -4 -4 -17 2 -31 l12 -25 208
0 207 0 0 140 0 140 -210 0 c-200 0 -210 -1 -210 -19z"/>
<path d="M6840 2080 l0 -140 100 0 100 0 0 140 0 140 -100 0 -100 0 0 -140z"/>
<path d="M7387 2214 c-4 -4 -7 -67 -7 -141 l0 -133 140 0 141 0 -3 138 -3 137
-131 3 c-71 1 -133 -1 -137 -4z"/>
<path d="M7680 2080 l0 -140 140 0 141 0 -3 138 -3 137 -137 3 -138 3 0 -141z"/>
<path d="M8280 2085 l0 -135 159 0 c118 0 161 3 165 13 5 10 7 10 12 0 4 -10
67 -13 265 -13 l259 0 0 135 0 135 -260 0 c-253 0 -260 -1 -260 -20 0 -11 -4
-20 -10 -20 -5 0 -10 9 -10 20 0 19 -7 20 -160 20 l-160 0 0 -135z m340 40 c0
-19 -4 -35 -10 -35 -5 0 -10 16 -10 35 0 19 5 35 10 35 6 0 10 -16 10 -35z m0
-95 c0 -22 -4 -40 -10 -40 -5 0 -10 18 -10 40 0 22 5 40 10 40 6 0 10 -18 10
-40z"/>
<path d="M9180 1995 c0 -143 4 -225 10 -225 6 0 10 82 10 225 0 143 -4 225
-10 225 -6 0 -10 -82 -10 -225z"/>
<path d="M9450 2080 l0 -140 120 0 120 0 0 140 0 140 -120 0 -120 0 0 -140z"/>
<path d="M5010 2070 c0 -118 2 -140 15 -140 13 0 15 22 15 140 0 118 -2 140
-15 140 -13 0 -15 -22 -15 -140z"/>
<path d="M5790 2070 c0 -87 4 -140 10 -140 6 0 10 53 10 140 0 87 -4 140 -10
140 -6 0 -10 -53 -10 -140z"/>
<path d="M7070 2070 l0 -140 140 0 140 0 0 140 0 140 -140 0 -140 0 0 -140z"/>
<path d="M7990 2071 c0 -83 4 -142 10 -146 6 -4 10 45 10 139 0 91 -4 146 -10
146 -6 0 -10 -53 -10 -139z"/>
<path d="M9154 2080 c0 -74 1 -105 3 -67 2 37 2 97 0 135 -2 37 -3 6 -3 -68z"/>
<path d="M9220 1990 l0 -220 105 0 105 0 0 220 0 220 -105 0 -105 0 0 -220z"/>
<path d="M6790 2170 c0 -5 5 -10 10 -10 6 0 10 5 10 10 0 6 -4 10 -10 10 -5 0
-10 -4 -10 -10z"/>
<path d="M6790 2080 c0 -5 5 -10 11 -10 5 0 7 5 4 10 -3 6 -8 10 -11 10 -2 0
-4 -4 -4 -10z"/>
<path d="M4500 1840 l0 -70 115 0 115 0 0 70 0 70 -115 0 -115 0 0 -70z"/>
<path d="M4750 1840 l0 -70 115 0 115 0 0 70 0 70 -115 0 -115 0 0 -70z"/>
<path d="M5010 1840 c0 -56 3 -70 15 -70 12 0 15 14 15 70 0 56 -3 70 -15 70
-12 0 -15 -14 -15 -70z"/>
<path d="M5070 1840 l0 -70 165 0 165 0 0 70 0 70 -165 0 -165 0 0 -70z"/>
<path d="M5430 1840 l0 -70 160 0 160 0 0 70 0 70 -160 0 -160 0 0 -70z"/>
<path d="M5790 1840 c0 -40 4 -70 10 -70 6 0 10 30 10 70 0 40 -4 70 -10 70
-6 0 -10 -30 -10 -70z"/>
<path d="M5850 1840 l0 -70 220 0 220 0 0 70 0 70 -220 0 -220 0 0 -70z"/>
<path d="M6320 1899 c-11 -8 -12 -12 -2 -16 16 -6 16 -70 0 -75 -9 -3 -8 -9 4
-21 14 -15 43 -17 222 -17 l206 0 0 70 0 70 -207 0 c-130 0 -214 -4 -223 -11z"/>
<path d="M6840 1840 l0 -70 100 0 100 0 0 70 0 70 -100 0 -100 0 0 -70z"/>
<path d="M7070 1840 l0 -70 140 0 140 0 0 70 0 70 -140 0 -140 0 0 -70z"/>
<path d="M7380 1840 l0 -70 140 0 140 0 0 70 0 70 -140 0 -140 0 0 -70z"/>
<path d="M7680 1840 l0 -70 140 0 140 0 0 70 0 70 -140 0 -140 0 0 -70z"/>
<path d="M7993 1840 c0 -41 2 -58 4 -37 2 20 2 54 0 75 -2 20 -4 3 -4 -38z"/>
<path d="M8280 1840 l0 -70 159 0 c118 0 161 3 165 13 5 10 7 10 12 0 4 -10
67 -13 265 -13 l259 0 0 70 0 70 -430 0 -430 -1 0 -69z m340 5 c0 -19 -4 -35
-10 -35 -5 0 -10 16 -10 35 0 19 5 35 10 35 6 0 10 -16 10 -35z"/>
<path d="M9153 1840 c0 -41 2 -58 4 -37 2 20 2 54 0 75 -2 20 -4 3 -4 -38z"/>
<path d="M9450 1840 l0 -70 120 0 120 0 0 70 0 70 -120 0 -120 0 0 -70z"/>
<path d="M6790 1890 c0 -5 5 -10 10 -10 6 0 10 5 10 10 0 6 -4 10 -10 10 -5 0
-10 -4 -10 -10z"/>
<path d="M6790 1800 c0 -5 5 -10 10 -10 6 0 10 5 10 10 0 6 -4 10 -10 10 -5 0
-10 -4 -10 -10z"/>
<path d="M8080 1640 l0 -40 90 0 90 0 0 40 0 40 -60 0 c-57 0 -60 -1 -60 -24
0 -36 -17 -40 -24 -6 -9 47 -36 39 -36 -10z"/>
<path d="M8080 1554 c0 -9 -9 -18 -20 -21 -19 -5 -20 -14 -20 -134 l0 -129 39
0 c36 0 40 2 38 24 -3 34 17 37 21 4 3 -27 6 -28 58 -28 l54 0 0 150 0 150
-55 0 c-48 0 -55 -2 -55 -20 0 -11 -4 -20 -10 -20 -5 0 -10 9 -10 20 0 13 -7
20 -20 20 -12 0 -20 -7 -20 -16z m60 -79 c0 -19 -4 -35 -10 -35 -5 0 -10 6
-10 13 0 6 -3 22 -6 35 -5 16 -2 22 10 22 12 0 16 -9 16 -35z m0 -90 c0 -39
-14 -47 -24 -12 -9 35 -7 47 9 47 10 0 15 -11 15 -35z"/>
<path d="M5016 1533 c-3 -3 -6 -66 -6 -140 0 -112 2 -133 15 -133 13 0 15 22
15 134 0 123 -6 157 -24 139z"/>
<path d="M5790 1400 c0 -87 4 -140 10 -140 6 0 10 53 10 140 0 87 -4 140 -10
140 -6 0 -10 -53 -10 -140z"/>
<path d="M7070 1400 l0 -140 140 0 141 0 -3 138 -3 137 -137 3 -138 3 0 -141z"/>
<path d="M7990 1400 c0 -87 4 -140 10 -140 6 0 10 53 10 140 0 87 -4 140 -10
140 -6 0 -10 -53 -10 -140z"/>
<path d="M8286 1533 c-3 -3 -6 -64 -6 -135 l0 -128 160 0 160 0 0 30 c0 17 5
30 10 30 6 0 10 -13 10 -30 l0 -30 260 0 261 0 -3 133 -3 132 -421 2 c-232 1
-424 0 -428 -4z m334 -58 c0 -19 -4 -35 -10 -35 -5 0 -10 16 -10 35 0 19 5 35
10 35 6 0 10 -16 10 -35z m0 -90 c0 -19 -4 -35 -10 -35 -5 0 -10 16 -10 35 0
19 5 35 10 35 6 0 10 -16 10 -35z"/>
<path d="M9180 1400 c0 -87 4 -140 10 -140 6 0 10 53 10 140 0 87 -4 140 -10
140 -6 0 -10 -53 -10 -140z"/>
<path d="M9450 1400 l0 -140 120 0 120 0 0 140 0 140 -120 0 -120 0 0 -140z"/>
<path d="M4480 1400 l0 -130 105 0 105 0 0 130 0 130 -105 0 -105 0 0 -130z"/>
<path d="M4730 1400 l0 -130 130 0 130 0 0 130 0 130 -130 0 -130 0 0 -130z"/>
<path d="M5060 1400 l0 -130 105 0 105 0 0 130 0 130 -105 0 -105 0 0 -130z"/>
<path d="M5300 1400 l0 -130 235 0 235 0 0 130 0 130 -235 0 -235 0 0 -130z"/>
<path d="M5850 1405 l0 -125 220 0 220 0 0 125 0 125 -220 0 -220 0 0 -125z"/>
<path d="M6310 1520 c0 -5 5 -10 10 -10 15 0 12 -67 -2 -74 -10 -5 -10 -7 0
-12 15 -7 16 -66 1 -81 -8 -8 -8 -13 0 -17 6 -4 11 -16 11 -27 0 -18 9 -19
210 -19 l210 0 0 125 0 125 -220 0 c-140 0 -220 -4 -220 -10z"/>
<path d="M6790 1520 c0 -5 5 -10 10 -10 6 0 10 5 10 10 0 6 -4 10 -10 10 -5 0
-10 -4 -10 -10z"/>
<path d="M6840 1405 l0 -125 100 0 100 0 0 125 0 125 -100 0 -100 0 0 -125z"/>
<path d="M7370 1400 l0 -130 105 0 105 0 0 130 0 130 -105 0 -105 0 0 -130z"/>
<path d="M7610 1400 l0 -130 180 0 180 0 0 130 0 130 -180 0 -180 0 0 -130z"/>
<path d="M9154 1400 c0 -74 1 -105 3 -67 2 37 2 97 0 135 -2 37 -3 6 -3 -68z"/>
<path d="M9220 1395 l0 -135 105 0 105 0 0 135 0 135 -105 0 -105 0 0 -135z"/>
<path d="M6790 1430 c0 -5 5 -10 10 -10 6 0 10 5 10 10 0 6 -4 10 -10 10 -5 0
-10 -4 -10 -10z"/>
<path d="M6790 1340 c0 -5 5 -10 11 -10 5 0 7 5 4 10 -3 6 -8 10 -11 10 -2 0
-4 -4 -4 -10z"/>
<path d="M4252 955 c0 -55 8 -224 18 -375 l19 -275 -5 190 c-3 105 -11 273
-18 375 -11 159 -13 171 -14 85z"/>
<path d="M5250 1024 c810 -23 1067 -28 1059 -19 -8 7 -1451 45 -1664 44 -106
-1 160 -12 605 -25z"/>
<path d="M6335 1002 c12 -12 455 -22 455 -10 0 4 -49 8 -108 8 -60 0 -165 3
-233 6 -84 5 -121 3 -114 -4z"/>
<path d="M6817 990 c4 -4 276 -15 603 -24 653 -18 706 -19 698 -10 -3 3 -244
11 -534 19 -291 8 -585 16 -652 19 -68 2 -120 0 -115 -4z"/>
<path d="M8133 954 c7 -7 456 -23 466 -17 2 2 2 5 0 7 -8 8 -474 18 -466 10z"/>
<path d="M8620 939 c0 -5 56 -9 123 -9 68 0 186 -3 263 -6 88 -3 134 -2 124 4
-20 12 -510 23 -510 11z"/>
<path d="M9233 923 c48 -2 126 -2 175 0 48 1 8 3 -88 3 -96 0 -136 -2 -87 -3z"/>
<path d="M9550 575 l0 -335 70 0 70 0 0 335 0 335 -70 0 -70 0 0 -335z"/>
<path d="M4310 570 l0 -330 170 0 170 0 0 330 0 330 -170 0 -170 0 0 -330z"/>
<path d="M4660 570 l0 -330 180 0 180 0 0 330 0 330 -180 0 -180 0 0 -330z"/>
<path d="M5030 570 l0 -330 180 0 180 0 0 330 0 330 -180 0 -180 0 0 -330z"/>
<path d="M5400 570 l0 -330 175 0 175 0 0 330 0 330 -175 0 -175 0 0 -330z"/>
<path d="M5770 570 c0 -213 4 -330 10 -330 6 0 10 117 10 330 0 213 -4 330
-10 330 -6 0 -10 -117 -10 -330z"/>
<path d="M5800 570 l0 -330 165 0 165 0 0 330 0 330 -165 0 -165 0 0 -330z"/>
<path d="M6140 570 l0 -330 86 0 85 0 -3 28 c-2 15 2 29 7 32 6 3 11 -10 13
-27 l3 -33 85 0 84 0 0 330 0 330 -84 0 c-58 0 -86 -4 -90 -12 -5 -10 -7 -10
-12 0 -4 8 -32 12 -90 12 l-84 0 0 -330z m190 255 c0 -19 -4 -35 -10 -35 -5 0
-10 6 -10 13 0 6 -3 22 -6 35 -5 16 -2 22 10 22 12 0 16 -9 16 -35z m0 -90 c0
-19 -4 -35 -10 -35 -5 0 -10 6 -10 13 0 6 -3 22 -6 35 -5 16 -2 22 10 22 12 0
16 -9 16 -35z m-2 -89 c2 -16 -1 -33 -7 -39 -8 -8 -11 -5 -11 9 0 10 -3 30 -7
43 -4 18 -2 23 8 19 8 -2 15 -17 17 -32z m2 -102 c0 -19 -4 -34 -9 -34 -10 0
-23 58 -15 71 11 18 24 -2 24 -37z m0 -89 c0 -19 -4 -35 -10 -35 -5 0 -10 6
-10 13 0 6 -3 22 -6 35 -5 16 -2 22 10 22 12 0 16 -9 16 -35z m0 -90 c0 -19
-4 -35 -10 -35 -5 0 -10 6 -10 13 0 6 -3 22 -6 35 -5 16 -2 22 10 22 12 0 16
-9 16 -35z"/>
<path d="M6510 570 l0 -330 140 0 140 0 0 35 c0 44 18 46 22 3 2 -28 8 -34 31
-36 l27 -3 0 330 0 331 -29 0 c-16 0 -32 -6 -35 -12 -5 -10 -7 -10 -12 0 -4 9
-43 12 -145 12 l-139 0 0 -330z m300 255 c0 -19 -4 -35 -10 -35 -5 0 -10 16
-10 35 0 19 5 35 10 35 6 0 10 -16 10 -35z m0 -90 c0 -19 -4 -35 -10 -35 -5 0
-10 16 -10 35 0 19 5 35 10 35 6 0 10 -16 10 -35z m2 -91 c4 -34 -3 -50 -16
-37 -9 10 -7 73 3 73 5 0 11 -16 13 -36z m-2 -94 c0 -22 -4 -40 -10 -40 -11 0
-14 63 -3 73 11 12 13 8 13 -33z m0 -95 c0 -19 -4 -35 -10 -35 -5 0 -10 16
-10 35 0 19 5 35 10 35 6 0 10 -16 10 -35z m0 -90 c0 -19 -4 -35 -10 -35 -5 0
-10 16 -10 35 0 19 5 35 10 35 6 0 10 -16 10 -35z"/>
<path d="M6880 570 l0 -330 160 0 160 0 0 330 0 330 -160 0 -160 0 0 -330z"/>
<path d="M7210 570 c0 -287 2 -330 15 -330 13 0 15 43 15 330 0 287 -2 330
-15 330 -13 0 -15 -43 -15 -330z"/>
<path d="M7250 570 l0 -330 135 0 135 0 0 330 0 330 -135 0 -135 0 0 -330z"/>
<path d="M7530 570 l0 -330 180 0 180 0 0 330 0 330 -180 0 -180 0 0 -330z"/>
<path d="M7900 570 l0 -330 110 0 111 0 -7 36 c-5 29 -4 36 7 32 8 -2 15 -19
17 -36 3 -32 3 -32 63 -32 l59 0 0 330 0 330 -59 0 c-38 0 -61 -5 -65 -12 -5
-10 -7 -10 -12 0 -4 8 -37 12 -115 12 l-109 0 0 -330z m240 255 c0 -19 -4 -35
-10 -35 -5 0 -10 6 -10 13 0 6 -3 22 -6 35 -5 16 -2 22 10 22 12 0 16 -9 16
-35z m0 -90 c0 -39 -14 -47 -24 -12 -9 35 -7 47 9 47 10 0 15 -11 15 -35z m-2
-84 c2 -12 0 -30 -4 -39 -6 -14 -8 -13 -14 8 -12 39 -11 62 3 58 6 -3 13 -15
15 -27z m2 -107 c0 -19 -4 -34 -9 -34 -10 0 -23 58 -15 71 11 18 24 -2 24 -37z
m0 -89 c0 -19 -4 -35 -10 -35 -5 0 -10 6 -10 13 0 6 -3 22 -6 35 -5 16 -2 22
10 22 12 0 16 -9 16 -35z m0 -90 c0 -39 -14 -47 -24 -12 -9 35 -7 47 9 47 10
0 15 -11 15 -35z"/>
<path d="M8270 570 l0 -330 130 0 130 0 0 330 0 330 -130 0 -130 0 0 -330z"/>
<path d="M8540 570 c0 -287 2 -330 15 -330 13 0 15 43 15 330 0 287 -2 330
-15 330 -13 0 -15 -43 -15 -330z"/>
<path d="M8580 570 c0 -213 4 -330 10 -330 6 0 10 117 10 330 0 213 -4 330
-10 330 -6 0 -10 -117 -10 -330z"/>
<path d="M8619 890 c0 -5 0 -138 0 -295 0 -157 0 -301 0 -320 l1 -35 80 0 80
0 0 330 0 330 -80 0 c-46 0 -80 -4 -81 -10z"/>
<path d="M8790 570 l0 -330 80 0 80 0 0 270 0 270 95 0 95 0 0 60 0 60 -175 0
-175 0 0 -330z"/>
<path d="M9150 840 c0 -33 4 -60 10 -60 6 0 10 -97 10 -270 l0 -270 80 0 80 0
0 330 0 330 -90 0 -90 0 0 -60z"/>
<path d="M9340 570 l0 -330 100 0 100 0 0 330 0 330 -100 0 -100 0 0 -330z"/>
<path d="M8980 500 l0 -260 80 0 80 0 0 260 0 260 -80 0 -80 0 0 -260z"/>
<path d="M4250 205 c0 -13 121 -15 1025 -15 677 0 1025 3 1025 10 0 6 7 10 15
10 8 0 15 -4 15 -10 0 -16 457 -13 464 3 5 10 7 9 12 -1 7 -16 1304 -18 1304
-2 0 6 7 10 15 10 8 0 15 -4 15 -10 0 -16 457 -13 464 3 5 9 7 9 12 0 4 -10
160 -13 730 -13 637 0 724 2 724 15 0 13 -330 15 -2910 15 -2580 0 -2910 -2
-2910 -15z"/>
</g>
</svg>
